<svg width="24" height="24" viewBox="0 0 24 24" fill="none" xmlns="http://www.w3.org/2000/svg">
<g clip-path="url(#clip0_225_7828)">
<path d="M12.0006 19.9592H23.1435M12.0006 19.9592C12.0006 20.2728 11.9389 20.5833 11.8189 20.8731C11.6989 21.1628 11.523 21.426 11.3012 21.6478C11.0795 21.8695 10.8162 22.0454 10.5265 22.1654C10.2368 22.2855 9.92624 22.3472 9.61265 22.3472C9.29905 22.3472 8.98852 22.2855 8.6988 22.1654C8.40907 22.0454 8.14582 21.8695 7.92408 21.6478C7.70233 21.426 7.52643 21.1628 7.40642 20.8731C7.28641 20.5833 7.22465 20.2728 7.22465 19.9592C7.22465 19.6456 7.28641 19.3351 7.40642 19.0454C7.52643 18.7556 7.70233 18.4924 7.92408 18.2706C8.14582 18.0489 8.40907 17.873 8.6988 17.753C8.98852 17.633 9.29905 17.5712 9.61265 17.5712C9.92624 17.5712 10.2368 17.633 10.5265 17.753C10.8162 17.873 11.0795 18.0489 11.3012 18.2706C11.523 18.4924 11.6989 18.7556 11.8189 19.0454C11.9389 19.3351 12.0006 19.6456 12.0006 19.9592ZM23.1435 19.9592L19.9601 16.7758M23.1435 19.9592L19.9601 23.1426M5.63379 3.24493C5.63379 3.87827 5.88538 4.48567 6.33322 4.9335C6.78105 5.38134 7.38845 5.63293 8.02179 5.63293C8.65513 5.63293 9.26252 5.38134 9.71036 4.9335C10.1582 4.48567 10.4098 3.87827 10.4098 3.24493C10.4098 2.6116 10.1582 2.0042 9.71036 1.55636C9.26252 1.10853 8.65513 0.856934 8.02179 0.856934C7.38845 0.856934 6.78105 1.10853 6.33322 1.55636C5.88538 2.0042 5.63379 2.6116 5.63379 3.24493ZM12.0006 11.2044C12.0006 11.8377 12.2522 12.4451 12.7001 12.8929C13.1479 13.3408 13.7553 13.5924 14.3886 13.5924C15.022 13.5924 15.6294 13.3408 16.0772 12.8929C16.5251 12.4451 16.7766 11.8377 16.7766 11.2044C16.7766 10.571 16.5251 9.96363 16.0772 9.51579C15.6294 9.06795 15.022 8.81636 14.3886 8.81636C13.7553 8.81636 13.1479 9.06795 12.7001 9.51579C12.2522 9.96363 12.0006 10.571 12.0006 11.2044Z" stroke="#818181" stroke-width="1.75" stroke-linecap="round" stroke-linejoin="round"/>
<path d="M12.0003 11.2045H5.23571C4.08974 11.2272 2.99836 11.6984 2.19594 12.5168C1.39352 13.3353 0.944053 14.4358 0.944053 15.582C0.944053 16.7282 1.39352 17.8287 2.19594 18.6471C2.99836 19.4656 4.08974 19.9367 5.23571 19.9594H7.22428M16.7763 11.2045H19.1643C20.2198 11.2045 21.232 10.7853 21.9784 10.0389C22.7247 9.29257 23.144 8.28032 23.144 7.22483C23.144 6.16935 22.7247 5.15709 21.9784 4.41075C21.232 3.66441 20.2198 3.24512 19.1643 3.24512H10.406M5.63342 3.24512H0.857422" stroke="#818181" stroke-width="1.75" stroke-linecap="round" stroke-linejoin="round"/>
</g>
<defs>
<clipPath id="clip0_225_7828">
<rect width="24" height="24" fill="white"/>
</clipPath>
</defs>
</svg>
